Coordinates
version=1
nRows=26
nColumns=22
inDegrees=yes

Units are S.I. units (second, meters, Newtons, ...)
If the header above contains a line with 'inDegrees', this indicates whether rotational values are in degrees (yes) or radians (no).

endheader
time	pelvis_tilt	pelvis_list	pelvis_rotation	pelvis_tx	pelvis_ty	pelvis_tz	hip_flexion_r	hip_adduction_r	hip_rotation_r	knee_angle_r	ankle_angle_r	subtalar_angle_r	hip_flexion_l	hip_adduction_l	hip_rotation_l	knee_angle_l	ankle_angle_l	subtalar_angle_l	lumbar_extension	lumbar_bending	lumbar_rotation
      2.90000000	     -1.71054783	      5.66474869	     -1.46434327	      0.05722106	      1.05887964	     -0.35817065	     -3.53246874	     -4.55067088	      7.43649643	    -31.56006795	     12.39286065	      4.45871662	     16.90049316	      6.83246025	     -5.20900098	    -10.60510798	      1.64235050	      3.14721182	     -3.33793878	     -9.09357250	     -0.71344897
      2.91000000	     -1.74539987	      5.69395911	     -1.52228509	      0.04658322	      1.05746451	     -0.35681382	     -3.44632277	     -4.48932776	      7.00559793	    -30.73291000	     13.25255256	      3.19390869	     17.55623597	      6.67798504	     -5.60709406	    -10.62894430	      1.85734095	      4.45371483	     -3.67534301	     -9.03311262	     -0.71147040
      2.92000000	     -1.73353852	      5.64947319	     -1.55875995	      0.03576793	      1.05622840	     -0.35542120	     -3.33289415	     -4.36602107	      6.38203576	    -30.00368408	     14.24015261	      1.95226457	     18.17531015	      6.44274601	     -6.01026721	    -10.68300691	      2.23337575	      5.82493775	     -4.08745963	     -8.89238937	     -0.74658225
      2.93000000	     -1.66906505	      5.51096508	     -1.57033200	      0.02481960	      1.05522059	     -0.35401137	     -3.21253371	     -4.15791691	      5.58116572	    -29.34953327	     15.26150781	      0.77983569	     18.74376169	      6.11229479	     -6.41272634	    -10.76118409	      2.74793028	      7.15937225	     -4.57517166	     -8.64605253	     -0.80535250
      2.94000000	     -1.55790410	      5.27988175	     -1.55752145	      0.01379941	      1.05446152	     -0.35259118	     -3.10429897	     -3.86128329	      4.65852262	    -28.72788712	     16.24252536	     -0.29432604	     19.25999225	      5.69333604	     -6.81346088	    -10.85579878	      3.40634523	      8.37173354	     -5.11894453	     -8.29528897	     -0.88799278
      2.95000000	     -1.41429720	      4.97316610	     -1.52435568	      0.00276038	      1.05394141	     -0.35115667	     -3.00949984	     -3.49038262	      3.67159075	    -28.11325177	     17.14190715	     -1.24789962	     19.73753341	      5.20524791	     -7.22108409	    -10.97140926	      4.19239980	      9.38130746	     -5.69010285	     -7.86559945	     -0.96729069
      2.96000000	     -1.24552161	      4.58175112	     -1.47356311	     -0.00831898	      1.05363338	     -0.34973028	     -2.90680359	     -3.03365013	      2.67215604	    -27.53273295	     17.91010965	     -2.05583347	     20.18202174	      4.64378988	     -7.62237251	    -11.10531642	      5.09689754	     10.09543720	     -6.28284079	     -7.34075941	     -1.05360137
      2.97000000	     -1.07315022	      4.13483032	     -1.42327478	     -0.01939510	      1.05348741	     -0.34829136	     -2.77835360	     -2.51775532	      1.74412789	    -26.98264788	     18.54364135	     -2.73030996	     20.61607405	      4.03411253	     -8.03517419	    -11.26774818	      6.07827198	     10.50704449	     -6.86174810	     -6.75859991	     -1.11967990
      2.98000000	     -0.90361183	      3.62545309	     -1.36955198	     -0.03044496	      1.05347263	     -0.34684215	     -2.62996088	     -1.92832537	      0.95724293	    -26.44817897	     19.04977985	     -3.25143599	     21.05459438	      3.36723782	     -8.46388083	    -11.48594825	      7.03649684	     10.60265003	     -7.41603522	     -6.11593700	     -1.16377587
      2.99000000	     -0.74547867	      3.10048025	     -1.33883852	     -0.04142496	      1.05353763	     -0.34535984	     -2.44426658	     -1.31637130	      0.35835463	    -25.94986690	     19.45132024	     -3.67035355	     21.50697886	      2.68039485	     -8.94032076	    -11.78272739	      7.93715289	     10.45590666	     -7.92901555	     -5.47185159	     -1.17191653
      3.00000000	     -0.60003945	      2.57304764	     -1.33108226	     -0.05228926	      1.05365896	     -0.34384865	     -2.23169920	     -0.69205614	     -0.03041756	    -25.47642976	     19.76169448	     -4.01976915	     21.97910307	      1.98076973	     -9.47458533	    -12.19366952	      8.68989843	     10.11443762	     -8.39735738	     -4.84205519	     -1.15172271
      3.01000000	     -0.45169397	      2.05612617	     -1.35713523	     -0.06297623	      1.05384008	     -0.34229468	     -2.01648126	     -0.07119264	     -0.22695289	    -25.02379862	     20.00162679	     -4.31571751	     22.45475697	      1.26864534	    -10.09146627	    -12.75312360	      9.24433274	      9.62855579	     -8.83425794	     -4.24259811	     -1.11703997
      3.02000000	     -0.31633858	      1.57734947	     -1.39537988	     -0.07342928	      1.05404642	     -0.34070732	     -1.79608805	      0.52095177	     -0.28207731	    -24.57764783	     20.19411203	     -4.63849288	     22.95896329	      0.56890306	    -10.77804893	    -13.50925746	      9.59089254	      8.96659522	     -9.21950250	     -3.71552644	     -1.07378372
      3.03000000	     -0.14828439	      1.11812859	     -1.46193766	     -0.08361713	      1.05437315	     -0.33907283	     -1.62740046	      1.10232087	     -0.22065522	    -24.12513325	     20.31417488	     -4.94760664	     23.42772435	     -0.14897862	    -11.52305689	    -14.46669652	      9.72558478	      8.23083108	     -9.60897262	     -3.23266616	     -1.04533337
      3.04000000	      0.03049214	      0.67770141	     -1.53964590	     -0.09346432	      1.05480834	     -0.33740185	     -1.51168450	      1.67289624	     -0.10990480	    -23.63003404	     20.36661624	     -5.29924249	     23.87298100	     -0.88673977	    -12.29298064	    -15.62879346	      9.69770080	      7.37714893	     -9.96860717	     -2.79432181	     -1.03849909
      3.05000000	      0.22870892	      0.25652345	     -1.61316680	     -0.10297787	      1.05538679	     -0.33571474	     -1.45276175	      2.23081998	      0.00029967	    -23.10450882	     20.34587888	     -5.68798655	     24.27486872	     -1.63849581	    -13.03509472	    -16.98501217	      9.57602835	      6.43764271	    -10.31281890	     -2.39867770	     -1.07740983
      3.06000000	      0.43991312	     -0.16347964	     -1.68553949	     -0.11215509	      1.05614080	     -0.33401536	     -1.44608229	      2.79241096	      0.09679121	    -22.54324184	     20.22348948	     -6.09615999	     24.61997812	     -2.41707021	    -13.69300875	    -18.50144443	      9.42765736	      5.45049962	    -10.63509475	     -2.02191507	     -1.15615072
      3.07000000	      0.65833286	     -0.58788502	     -1.75008965	     -0.12102244	      1.05709003	     -0.33232914	     -1.47598668	      3.35832828	      0.15858603	    -21.96049741	     19.99489126	     -6.49053382	     24.90004596	     -3.21482982	    -14.21723237	    -20.14177923	      9.30783208	      4.46723222	    -10.93188975	     -1.65376196	     -1.26538863
      3.08000000	      0.86505334	     -1.01127179	     -1.80800211	     -0.12960258	      1.05823150	     -0.33067765	     -1.51484455	      3.91800348	      0.18648135	    -21.36565016	     19.66125974	     -6.85084047	     25.12093888	     -4.01192141	    -14.57361561	    -21.86371680	      9.23592082	      3.49607055	    -11.18058663	     -1.29744510	     -1.38652334
      3.09000000	      1.05608793	     -1.42819187	     -1.86082542	     -0.13795662	      1.05956451	     -0.32909077	     -1.53995215	      4.46251882	      0.20291383	    -20.78715509	     19.22018706	     -7.12976831	     25.28320595	     -4.78516985	    -14.72706486	    -23.63879941	      9.22465902	      2.59509263	    -11.38374162	     -0.95360179	     -1.51945432
      3.10000000	      1.22311959	     -1.82030580	     -1.90971008	     -0.14613134	      1.06106605	     -0.32760230	     -1.53183158	      4.96881001	      0.21789594	    -20.23745150	     18.69228127	     -7.31064127	     25.39427003	     -5.49796313	    -14.66199686	    -25.44291357	      9.26382445	      1.78400472	    -11.53615320	     -0.63844100	     -1.65228607
      3.11000000	      1.36017026	     -2.16598967	     -1.95828817	     -0.15415722	      1.06269972	     -0.32623609	     -1.47691167	      5.41289447	      0.24672289	    -19.72686902	     18.09927322	     -7.40083283	     25.46090772	     -6.11332395	    -14.37932457	    -27.25700985	      9.32719989	      1.06735533	    -11.63118408	     -0.37262322	     -1.78746348
      3.12000000	      1.46646103	     -2.45028004	     -2.00699812	     -0.16208135	      1.06442042	     -0.32501698	     -1.37035898	      5.77811196	      0.28190345	    -19.25710170	     17.46419991	     -7.42000928	     25.48967540	     -6.60003710	    -13.87583319	    -29.07012602	      9.39691780	      0.46029107	    -11.67533733	     -0.16842851	     -1.91996424
      3.13000000	      1.58154253	     -2.66581040	     -2.05884735	     -0.16990919	      1.06623278	     -0.32394172	     -1.26300227	      6.05930884	      0.33776978	    -18.81527548	     16.83884166	     -7.39302232	     25.44082320	     -6.94405864	    -13.17782737	    -30.87611347	      9.48363154	      0.05476740	    -11.71636334	     -0.03493178	     -2.05274301
      3.14000000	      1.64316942	     -2.80291543	     -2.10009520	     -0.17765931	      1.06799772	     -0.32307358	     -1.08809152	      6.24339114	      0.34850288	    -18.39496464	     16.19450014	     -7.35701882	     25.39114589	     -7.12001948	    -12.29246699	    -32.66927394	      9.52346946	     -0.29363504	    -11.68259457	      0.02962755	     -2.18472345
      3.15000000	      1.64485238	     -2.85950652	     -2.12959460	     -0.18532408	      1.06965072	     -0.32238583	     -0.84779513	      6.33505298	      0.33115590	    -17.98348562	     15.57621230	     -7.32066085	     25.35015993	     -7.13184934	    -11.26923194	    -34.44619178	      9.53873533	     -0.54680894	    -11.56563234	      0.02032286	     -2.33270997
